<?xml version="1.0" encoding="utf-8"?>
<svg xmlns="http://www.w3.org/2000/svg" xmlns:svg="http://www.w3.org/2000/svg" version="1.1" viewBox="0 0 1400 710">
	<title>The titlepage for the Standard Ebooks edition of Short Fiction, by Ivan Bunin. Translated by S. S. Koteliansky, D. H. Lawrence, Leonard Woolf, Bernard Guilbert Guerney and The Russian Review</title>
	<g aria-label="SHORT FICTION">
		<path d="m 326.86549,51.403507 c -12.44444,0 -25.16959,9.169591 -25.16959,23.578948 0,8.046784 5.4269,15.251462 14.69006,19.836258 9.16959,4.584795 17.40351,7.111107 17.40351,12.725147 0,7.20468 -7.29825,7.57895 -11.13451,7.57895 -8.60818,0 -18.90058,-8.70176 -18.90058,-8.70176 l -8.79532,14.78363 c 0,0 10.94737,10.19883 29.00585,10.19883 15.06432,0 29.09941,-6.45614 29.09941,-24.88889 0,-10.105264 -9.45029,-17.40351 -18.05848,-21.052632 -8.79532,-3.742691 -16.09357,-6.83041 -16.09357,-11.134504 0,-4.210526 3.18129,-6.923976 9.1696,-6.923976 7.95321,0 15.62573,5.333333 15.62573,5.333333 l 7.11111,-14.035088 c 0,0 -9.91813,-7.298246 -23.95322,-7.298246 z"/>
		<path d="m 383.87718,99.029239 h 24.88889 V 130 h 17.59065 V 52.807016 H 408.76607 V 83.590642 H 383.87718 V 52.807016 H 366.28654 V 130 h 17.59064 z"/>
		<path d="m 439.09649,91.356724 c 0,22.549706 16.09357,40.046786 38.92398,40.046786 22.17544,0 38.83041,-17.49708 38.83041,-40.046786 0,-22.549708 -17.40351,-39.953217 -38.83041,-39.953217 -21.23977,0 -38.92398,17.403509 -38.92398,39.953217 z m 18.99416,0 c 0,-11.508772 6.36257,-23.017544 19.92982,-23.017544 13.66082,0 19.83626,11.508772 19.83626,23.017544 0,11.508776 -5.80117,23.017546 -19.83626,23.017546 -14.40936,0 -19.92982,-11.50877 -19.92982,-23.017546 z"/>
		<path d="M 529.61257,52.807016 V 130 h 17.59065 V 99.497075 L 570.78217,130 h 22.36257 l -26.5731,-31.906433 c 9.45029,-2.994152 15.81287,-10.760234 15.81287,-22.362574 0,-15.157895 -10.85381,-22.923977 -25.1696,-22.923977 z m 17.59065,34.245615 V 66.842104 h 2.05848 c 6.64327,0 14.59649,0.467836 14.59649,10.105263 0,9.637428 -7.95322,10.105264 -14.59649,10.105264 z"/>
		<path d="m 593.1608,68.245613 h 18.33919 V 130 h 17.59064 V 68.245613 h 18.33918 V 52.807016 H 593.1608 Z"/>
		<path d="M 733.981,52.807016 H 689.34942 V 130 h 17.59064 V 99.029239 h 24.98246 V 83.590642 H 706.94006 V 68.245613 H 733.981 Z"/>
		<path d="M 764.93714,52.807016 H 747.34649 V 130 h 17.59065 z"/>
		<path d="m 819.3728,114.09357 c -17.68421,0 -25.45029,-12.35088 -25.45029,-22.736846 0,-10.292397 7.76608,-22.643275 25.45029,-22.643275 8.98246,0 15.1579,4.77193 15.1579,4.77193 l 7.48538,-14.97076 c 0,0 -8.60819,-7.111112 -25.35673,-7.111112 -21.89473,0 -41.82456,17.964913 -41.82456,40.140352 0,22.081871 20.02339,39.859651 41.82456,39.859651 16.74854,0 25.35673,-7.11111 25.35673,-7.11111 l -7.48538,-14.97076 c 0,0 -6.17544,4.77193 -15.1579,4.77193 z"/>
		<path d="m 848.97224,68.245613 h 18.33918 V 130 h 17.59064 V 68.245613 h 18.33918 V 52.807016 h -54.269 z"/>
		<path d="M 932.16666,52.807016 H 914.57601 V 130 h 17.59065 z"/>
		<path d="m 944.98829,91.356724 c 0,22.549706 16.09357,40.046786 38.92398,40.046786 22.17543,0 38.83043,-17.49708 38.83043,-40.046786 0,-22.549708 -17.4035,-39.953217 -38.83043,-39.953217 -21.23977,0 -38.92398,17.403509 -38.92398,39.953217 z m 18.99416,0 c 0,-11.508772 6.36257,-23.017544 19.92982,-23.017544 13.66082,0 19.83623,11.508772 19.83623,23.017544 0,11.508776 -5.80114,23.017546 -19.83623,23.017546 -14.40936,0 -19.92982,-11.50877 -19.92982,-23.017546 z"/>
		<path d="m 1053.095,82.093566 h 0.1871 L 1083.9722,130 h 17.5906 V 52.807016 h -17.5906 v 47.906434 h -0.1871 L 1053.095,52.807016 h -17.5906 V 130 h 17.5906 z"/>
	</g>
	<g aria-label="IVAN BUNIN">
		<path d="M 478.48355,232.10526 H 465.29057 V 290 h 13.19298 z"/>
		<path d="m 504.02084,290 h 10.38596 l 24.2807,-57.89474 h -14.87719 l -14.59649,38.03509 -14.59649,-38.03509 h -14.8772 z"/>
		<path d="M 568.83882,232.10526 H 556.62829 L 533.25987,290 h 14.17544 l 4.2807,-11.57895 H 573.7511 L 578.0318,290 h 14.17544 z m 0.42105,34.73685 H 556.20724 L 562.66338,250 h 0.14035 z"/>
		<path d="m 612.58991,254.07018 h 0.14035 L 635.7478,290 h 13.19299 V 232.10526 H 635.7478 v 35.92983 h -0.14035 L 612.58991,232.10526 H 599.39693 V 290 h 13.19298 z"/>
		<path d="M 686.5625,232.10526 V 290 h 21.96491 c 12,0 18.94737,-6.59649 18.94737,-16.14035 0,-9.33333 -5.12281,-13.33333 -12.35088,-14.59649 4.91228,-2.52632 7.22807,-7.08772 7.22807,-12.42105 0,-11.01755 -7.85965,-14.73685 -17.82456,-14.73685 z m 13.19298,22.66667 V 242.2807 h 1.05263 c 5.75439,0 8.77193,1.75439 8.77193,5.89474 0,4.8421 -3.08772,6.59649 -8.77193,6.59649 z m 0,25.05263 v -13.68421 h 4.14035 c 6.24562,0 9.68421,1.89474 9.68421,7.22807 0,4.5614 -3.43859,6.45614 -9.68421,6.45614 z"/>
		<path d="m 782.79166,232.10526 h -13.19299 v 33.47369 c 0,9.68421 -2.94736,12.49123 -9.4035,12.49123 -6.45614,0 -9.40351,-2.80702 -9.40351,-12.49123 v -33.47369 h -13.19299 v 37.33334 c 0,14.31579 7.85965,21.61403 22.5965,21.61403 14.73684,0 22.59649,-7.29824 22.59649,-21.61403 z"/>
		<path d="m 808.71381,254.07018 h 0.14035 L 831.8717,290 h 13.19299 V 232.10526 H 831.8717 v 35.92983 h -0.14035 L 808.71381,232.10526 H 795.52083 V 290 h 13.19298 z"/>
		<path d="M 871.6908,232.10526 H 858.49782 V 290 h 13.19298 z"/>
		<path d="m 898.3465,254.07018 h 0.14035 L 921.50439,290 h 13.19299 v -57.89474 h -13.19299 v 35.92983 h -0.14035 L 898.3465,232.10526 H 885.15352 V 290 h 13.19298 z"/>
	</g>
	<g aria-label="translated by">
		<path d="m 594.75525,403.42189 c 0,1.19023 2.50797,0.25505 2.50797,1.14772 0,1.14771 -1.78533,8.034 -1.78533,11.94474 0,3.31562 1.57279,3.99575 2.72051,3.99575 2.63549,0 6.24867,-2.89055 6.24867,-3.99575 0,-0.59512 -0.34007,-0.59512 -0.46759,-0.59512 -0.68013,0 -1.65781,1.87036 -3.99575,1.87036 -0.17003,0 -1.74283,-0.085 -1.74283,-2.33794 0,-0.68013 0.97769,-6.20617 1.36026,-8.84166 0.25505,-1.74283 0.12752,-2.50797 1.36025,-2.50797 0.93518,0 2.76302,0.21254 3.44315,0.21254 0.76514,0 1.02019,-0.25505 1.02019,-1.23273 0,-0.5101 -0.21254,-0.80765 -1.10521,-0.80765 -0.46758,0 -0.80765,0.0425 -2.46546,0.0425 -1.40276,0 -1.48778,-0.0425 -1.48778,-0.29755 0,-0.63762 0.76515,-2.63549 0.76515,-3.1881 0,-0.38257 -0.21254,-0.51009 -0.42508,-0.51009 -0.68013,0 -0.76515,0.5526 -2.46547,2.33793 -1.87035,1.95537 -3.48565,1.91286 -3.48565,2.76302 z"/>
		<path d="m 606.86272,407.41764 c 0,0.59511 0.34006,0.72264 0.51009,0.72264 0.21254,0 0.34006,-0.12753 0.46759,-0.25505 0.25505,-0.29756 0.59511,-2.84804 2.33794,-2.84804 0.76514,0 1.44527,0.76515 1.44527,2.89055 0,3.18809 -1.82784,9.43677 -1.82784,11.13708 0,1.0202 0.85015,1.10521 1.27523,1.10521 h 0.21254 c 1.53029,0 1.44528,0 2.38045,-7.22635 l 0.21254,-1.40277 c 0.21254,-1.78533 1.27524,-7.35387 3.1881,-7.35387 1.53028,0 1.36025,1.78533 2.29543,1.78533 0.76514,0 0.85016,-1.31775 0.93517,-1.6153 0.12753,-0.46759 0.46759,-1.02019 0.46759,-1.5728 0,-0.59511 -0.46759,-1.31774 -1.57279,-1.31774 -3.14559,0 -5.27099,4.37832 -5.56855,4.37832 -0.085,0 -0.12752,-0.0425 -1.19022,-2.80553 -0.25505,-0.68013 -0.68013,-1.48778 -1.5728,-1.48778 -0.38257,0 -3.99574,1.02019 -3.99574,5.8661 z"/>
		<path d="m 620.45398,415.15409 c 0,2.76302 0.51009,5.48353 4.54835,5.48353 4.03826,0 7.56642,-5.10096 7.77896,-5.10096 0.29755,0 -0.085,4.7609 2.63549,4.7609 1.14772,0 3.06057,-1.95537 4.12327,-3.48566 0.55261,-0.76514 0.76515,-1.40276 0.76515,-1.82784 0,-0.17003 -0.0425,-0.46759 -0.38257,-0.46759 -0.80766,0 -1.70032,2.76302 -3.10309,2.76302 -0.80765,0 -1.44527,-1.40276 -1.44527,-2.50797 0,-1.6153 0.42508,-3.57067 0.76515,-5.44102 0.34006,-1.91286 0.59511,-3.86823 0.97768,-5.44102 0.29756,-1.23273 0.85016,-2.25292 0.85016,-2.93305 0,-0.46759 -0.21254,-0.63762 -0.46759,-0.63762 -0.85016,0 -1.36025,2.08289 -2.21041,2.08289 -1.40277,0 -2.29543,-0.46759 -3.61318,-0.46759 -1.10521,0 -1.95537,0.21254 -3.10308,0.76515 -2.25292,1.0627 -4.20829,3.10308 -5.73858,5.52603 -1.31775,2.1254 -2.38044,4.54836 -2.38044,6.9288 z m 2.97555,-0.25505 c 0,-0.76514 0.085,-1.53028 0.21254,-2.29543 0.38258,-2.21041 1.40277,-4.12327 2.6355,-6.16365 1.27524,-2.16791 3.52816,-3.44315 5.27099,-3.44315 0.89266,0 2.80552,0.29756 2.80552,1.48778 0,0.12753 -1.14771,7.94899 -2.1679,9.98937 -0.38258,0.76515 -2.38045,3.82572 -5.44102,3.82572 -1.78534,0 -3.31563,-1.27524 -3.31563,-3.40064 z"/>
		<path d="m 641.69999,406.35494 c 0,0.46759 0.085,0.80765 0.38257,0.80765 0.93518,0 1.40277,-2.38044 2.72051,-2.38044 0.42508,0 0.97769,0.85016 0.97769,2.33794 0,3.27311 -1.87036,9.86184 -1.87036,11.64718 0,1.23273 0.34007,1.31775 1.48778,1.31775 1.10521,0 1.44527,-0.17004 1.5728,-1.10521 0.085,-0.59511 -0.21254,-0.085 0.85016,-5.82359 1.02019,-5.48353 0.51009,-5.10096 2.33794,-7.69395 0.97768,-1.40276 1.78533,-1.87035 2.76301,-1.87035 2.76302,0 2.97556,2.80553 2.97556,3.48566 0,1.57279 -0.89267,7.26886 -0.89267,10.49947 0,1.48777 0.72264,2.678 1.5728,2.678 1.87035,0 5.61105,-2.97556 5.61105,-4.63337 0,-0.25505 -0.085,-0.5101 -0.38257,-0.5101 -0.63762,0 -0.80765,0.5101 -1.31775,1.14772 0,0 -0.97768,0.93517 -1.70032,0.93517 -0.46758,0 -0.80765,-0.34006 -0.80765,-1.53028 0,-1.44527 0.72264,-5.95112 0.72264,-8.92668 0,-2.678 -0.59511,-5.31349 -3.57067,-5.31349 -1.78534,0 -4.03826,1.53028 -5.18597,2.42295 -1.5728,1.19022 -1.87035,2.1254 -2.1254,2.1254 -0.38257,0 0.51009,-4.46334 -1.95537,-4.46334 -1.6153,0 -4.16578,3.1881 -4.16578,4.84591 z"/>
		<path d="m 663.65071,417.70457 c 0,2.25292 3.06057,2.80553 4.71838,2.80553 5.44102,0 6.63125,-4.03826 6.63125,-5.56855 0,-2.84803 -1.61531,-4.03826 -2.93305,-5.52603 -1.02019,-1.10521 -3.35813,-2.84804 -3.35813,-4.46334 0,-1.27524 0.63762,-2.25292 2.25292,-2.25292 1.65781,0 1.82784,2.38044 3.35813,2.38044 0.21254,0 1.6153,-0.12752 1.6153,-1.44527 0,-1.65781 -1.65781,-2.21041 -3.95324,-2.21041 -3.31562,0 -5.78108,1.95536 -5.78108,4.8034 0,2.55048 1.6153,3.65568 3.31562,5.39851 1.53029,1.53029 2.93305,2.76302 2.93305,4.76089 0,0.5101 -0.29756,2.72051 -3.40064,2.72051 -2.59299,0 -1.87035,-2.93305 -4.03826,-2.93305 -0.51009,0 -1.36025,0.21254 -1.36025,1.53029 z"/>
		<path d="m 678.75033,416.34431 c 0,3.99575 1.23273,3.99575 2.08289,3.99575 0.80765,0 2.59299,-0.85016 3.6982,-2.12539 1.02019,-1.19023 2.12539,-2.6355 2.12539,-3.06058 0,-0.42508 -0.21254,-0.68013 -0.51009,-0.68013 -1.10521,0 -1.53029,3.01807 -3.86823,3.01807 -0.5526,0 -0.68012,-0.21254 -0.68012,-1.65781 0,-1.44527 0.51009,-4.12327 1.23273,-9.13921 1.36025,-9.13922 0.63762,-7.56642 2.21041,-15.81297 0.12752,-0.80765 0.42508,-1.36025 0.42508,-1.95537 0,-0.42507 -0.21254,-0.68012 -0.89267,-0.68012 -1.1052,0 -2.04038,0.42508 -5.14346,0.63762 -0.5526,0.0425 -0.63762,0.38257 -0.63762,0.59511 0,0.46759 0.38257,0.59511 1.23273,0.59511 0.5101,0 0.59511,-0.0425 1.23273,-0.0425 0.63762,0 1.0627,0.34007 1.0627,0.85016 0,0.5101 -0.63762,4.33581 -1.36025,8.92667 -0.42508,2.72051 -0.63762,5.73858 -1.0202,8.41658 -0.085,0.68013 -1.19022,5.69607 -1.19022,8.11902 z"/>
		<path d="m 689.28036,415.15409 c 0,2.76302 0.51009,5.48353 4.54835,5.48353 4.03826,0 7.56642,-5.10096 7.77896,-5.10096 0.29755,0 -0.085,4.7609 2.63549,4.7609 1.14772,0 3.06058,-1.95537 4.12328,-3.48566 0.5526,-0.76514 0.76514,-1.40276 0.76514,-1.82784 0,-0.17003 -0.0425,-0.46759 -0.38257,-0.46759 -0.80765,0 -1.70032,2.76302 -3.10308,2.76302 -0.80766,0 -1.44528,-1.40276 -1.44528,-2.50797 0,-1.6153 0.42508,-3.57067 0.76515,-5.44102 0.34006,-1.91286 0.59511,-3.86823 0.97768,-5.44102 0.29756,-1.23273 0.85016,-2.25292 0.85016,-2.93305 0,-0.46759 -0.21254,-0.63762 -0.46759,-0.63762 -0.85016,0 -1.36025,2.08289 -2.21041,2.08289 -1.40276,0 -2.29543,-0.46759 -3.61318,-0.46759 -1.10521,0 -1.95537,0.21254 -3.10308,0.76515 -2.25292,1.0627 -4.20829,3.10308 -5.73858,5.52603 -1.31774,2.1254 -2.38044,4.54836 -2.38044,6.9288 z m 2.97556,-0.25505 c 0,-0.76514 0.085,-1.53028 0.21253,-2.29543 0.38258,-2.21041 1.40277,-4.12327 2.6355,-6.16365 1.27524,-2.16791 3.52816,-3.44315 5.27099,-3.44315 0.89266,0 2.80552,0.29756 2.80552,1.48778 0,0.12753 -1.14771,7.94899 -2.1679,9.98937 -0.38257,0.76515 -2.38045,3.82572 -5.44102,3.82572 -1.78534,0 -3.31562,-1.27524 -3.31562,-3.40064 z"/>
		<path d="m 711.15402,403.42189 c 0,1.19023 2.50797,0.25505 2.50797,1.14772 0,1.14771 -1.78533,8.034 -1.78533,11.94474 0,3.31562 1.57279,3.99575 2.72051,3.99575 2.63549,0 6.24867,-2.89055 6.24867,-3.99575 0,-0.59512 -0.34006,-0.59512 -0.46759,-0.59512 -0.68012,0 -1.65781,1.87036 -3.99575,1.87036 -0.17003,0 -1.74282,-0.085 -1.74282,-2.33794 0,-0.68013 0.97768,-6.20617 1.36025,-8.84166 0.25505,-1.74283 0.12753,-2.50797 1.36026,-2.50797 0.93517,0 2.76302,0.21254 3.44314,0.21254 0.76515,0 1.02019,-0.25505 1.02019,-1.23273 0,-0.5101 -0.21254,-0.80765 -1.1052,-0.80765 -0.46759,0 -0.80765,0.0425 -2.46547,0.0425 -1.40276,0 -1.48777,-0.0425 -1.48777,-0.29755 0,-0.63762 0.76514,-2.63549 0.76514,-3.1881 0,-0.38257 -0.21254,-0.51009 -0.42508,-0.51009 -0.68013,0 -0.76514,0.5526 -2.46546,2.33793 -1.87035,1.95537 -3.48566,1.91286 -3.48566,2.76302 z"/>
		<path d="m 723.40296,413.75133 c 0,3.78321 1.31775,6.75877 6.71626,6.75877 3.69819,0 7.39639,-2.97556 7.39639,-3.95325 0,-0.25504 -0.17003,-0.42508 -0.5101,-0.42508 -0.46759,0 -2.1679,1.82785 -4.59086,1.82785 -4.20829,0 -6.12115,-2.1254 -6.12115,-5.3135 0,-1.10521 0.12753,-1.74283 0.72264,-1.74283 3.99575,-0.0425 6.29118,-0.97768 6.67375,-1.14771 0.80765,-0.34006 4.12327,-2.08289 4.12327,-5.14346 0,-1.87036 -1.70032,-3.14559 -3.69819,-3.14559 -2.38045,0 -4.33581,0.76514 -5.90861,2.25292 -2.93305,2.72051 -4.8034,6.37619 -4.8034,10.03188 z m 3.48566,-4.42083 c 0,-0.5526 0.97768,-3.27311 2.25292,-4.59086 1.1052,-1.14772 2.42295,-1.99788 3.48565,-1.99788 0.72264,0 2.25292,0.38258 2.25292,1.99788 0,2.678 -3.48565,5.44102 -7.60892,5.44102 -0.29756,0 -0.38257,-0.5526 -0.38257,-0.85016 z"/>
		<path d="m 739.86816,414.6865 c 0,3.1881 1.48777,5.65356 5.10095,5.65356 4.20829,0 6.3762,-4.76089 6.75877,-4.76089 0.59511,0 -0.38257,4.76089 2.59299,4.76089 2.76301,0 5.44102,-4.2933 5.44102,-5.18597 0,-0.17003 -0.12753,-0.38257 -0.46759,-0.38257 -0.68013,0 -1.65781,2.63549 -3.52816,2.63549 -0.97769,0 -1.10521,-0.89266 -1.10521,-1.82784 0,-1.27524 0.42508,-3.95324 0.89267,-7.18385 2.38044,-17.38575 2.80552,-18.74601 2.80552,-19.85122 0,-0.38257 -0.29755,-0.72263 -0.68013,-0.72263 -1.14771,0 -0.89266,0.085 -3.27311,0.68013 -1.19022,0.29755 -2.678,0.12752 -2.678,0.85015 0,0.29756 0.25505,0.46759 0.68013,0.46759 0.0425,0 1.02019,-0.0425 1.48778,-0.0425 0.63762,0 1.23273,0.42508 1.23273,1.0627 0,0.29756 -1.40277,11.47715 -1.53029,11.47715 -1.19022,0 -2.04038,-0.5526 -3.14559,-0.5526 -5.05845,0 -10.58448,6.33369 -10.58448,12.92242 z m 2.97555,-1.19022 c 0,-4.46334 3.48566,-10.83953 7.39639,-10.83953 1.14772,0 2.84803,0.5526 2.84803,1.70032 0,1.70032 -0.63762,9.18172 -2.33793,11.30712 -1.10521,1.40276 -2.76302,2.21041 -4.29331,2.21041 -2.59299,0 -3.61318,-1.91286 -3.61318,-4.37832 z"/>
		<path d="m 771.07033,416.98193 c 0,2.46547 2.678,3.57067 5.18597,3.57067 6.58874,0 11.60468,-7.60892 11.60468,-13.39001 0,-2.76301 -1.48778,-5.39851 -4.67588,-5.39851 -4.88842,0 -6.88629,3.95324 -7.4814,3.95324 -0.085,0 -0.21254,-0.34006 -0.21254,-0.63762 0,-3.06057 2.72051,-15.72795 2.72051,-16.49309 0,-0.46759 -0.34007,-0.76514 -0.80765,-0.76514 -0.25505,0 -1.02019,0.25505 -2.67801,0.46759 -1.95536,0.25504 -3.14558,0.21254 -3.14558,1.06269 0,0.59512 0.34006,0.59512 0.80765,0.59512 0.63762,0 1.1052,-0.085 1.74282,-0.085 0.85016,0 1.0627,0.29756 1.0627,0.5101 0,1.02019 -0.25505,2.50797 -0.63762,4.33581 -0.63762,3.14559 -1.14771,7.26886 -1.91286,11.68969 -0.59511,3.44315 -1.57279,7.86397 -1.57279,10.58448 z m 2.80553,-0.51009 c 0,-0.42508 0.46758,-4.97343 1.70031,-8.33156 1.36026,-3.6982 4.12328,-4.12328 5.14347,-4.12328 2.33794,0 4.16578,1.95537 4.16578,4.33582 0,4.88841 -3.91073,11.00956 -7.73645,11.00956 -2.63549,0 -3.27311,-1.44527 -3.27311,-2.89054 z"/>
		<path d="m 789.50617,425.3135 c 0,1.95536 1.70032,2.50797 3.52816,2.50797 3.99575,0 6.71626,-4.84591 8.71414,-9.90436 2.50797,-6.33369 3.52816,-12.19979 3.52816,-14.11265 0,-1.31774 -0.72264,-2.25292 -1.65781,-2.25292 -1.02019,0 -1.44527,0.80765 -1.44527,1.5728 0,1.14771 1.0627,1.99787 1.0627,3.2306 0,2.84804 -0.93518,7.39639 -1.53029,7.39639 -0.46759,0 -4.50585,-12.07226 -8.62912,-12.07226 -2.59299,0 -3.44314,3.69819 -3.44314,5.48352 0,0.72264 0.17003,0.93518 0.42507,0.93518 1.27524,0 0.38258,-3.1881 2.84804,-3.1881 2.25292,0 6.9288,10.96706 6.9288,13.3475 0,1.61531 -2.80553,7.05633 -5.27099,7.05633 -1.95537,0 -1.99787,-1.40277 -3.69819,-1.40277 -0.72264,0 -1.36026,0.68013 -1.36026,1.40277 z"/>
	</g>
	<g aria-label="S. S. KOTELIANSKY, D. H. LAWRENCE,">
		<path d="m 180.35343,440.70175 c -6.22222,0 -12.5848,4.5848 -12.5848,11.78948 0,4.02339 2.71345,7.62573 7.34503,9.91813 4.5848,2.29239 8.70176,3.55555 8.70176,6.36257 0,3.60234 -3.64913,3.78947 -5.56726,3.78947 -4.30409,0 -9.45029,-4.35087 -9.45029,-4.35087 l -4.39766,7.39181 c 0,0 5.47369,5.09941 14.50293,5.09941 7.53216,0 14.5497,-3.22807 14.5497,-12.44444 0,-5.05263 -4.72514,-8.70175 -9.02924,-10.52632 -4.39766,-1.87134 -8.04678,-3.4152 -8.04678,-5.56725 0,-2.10526 1.59064,-3.46199 4.5848,-3.46199 3.9766,0 7.81286,2.66667 7.81286,2.66667 l 3.55556,-7.01754 c 0,0 -4.95907,-3.64913 -11.97661,-3.64913 z"/>
		<path d="m 207.89729,469.9883 c -2.94737,0 -5.33334,2.38597 -5.33334,5.38012 0,2.94737 2.38597,5.33333 5.33334,5.33333 2.99415,0 5.38011,-2.38596 5.38011,-5.33333 0,-2.99415 -2.38596,-5.38012 -5.38011,-5.38012 z"/>
		<path d="m 255.02082,440.70175 c -6.22222,0 -12.58479,4.5848 -12.58479,11.78948 0,4.02339 2.71345,7.62573 7.34503,9.91813 4.58479,2.29239 8.70175,3.55555 8.70175,6.36257 0,3.60234 -3.64912,3.78947 -5.56725,3.78947 -4.30409,0 -9.45029,-4.35087 -9.45029,-4.35087 l -4.39766,7.39181 c 0,0 5.47368,5.09941 14.50292,5.09941 7.53217,0 14.54971,-3.22807 14.54971,-12.44444 0,-5.05263 -4.72515,-8.70175 -9.02924,-10.52632 -4.39766,-1.87134 -8.04678,-3.4152 -8.04678,-5.56725 0,-2.10526 1.59064,-3.46199 4.58479,-3.46199 3.97661,0 7.81287,2.66667 7.81287,2.66667 l 3.55555,-7.01754 c 0,0 -4.95906,-3.64913 -11.97661,-3.64913 z"/>
		<path d="m 282.56469,469.9883 c -2.94737,0 -5.33333,2.38597 -5.33333,5.38012 0,2.94737 2.38596,5.33333 5.33333,5.33333 2.99415,0 5.38012,-2.38596 5.38012,-5.33333 0,-2.99415 -2.38597,-5.38012 -5.38012,-5.38012 z"/>
		<path d="m 351.51424,480 -17.96491,-20.30409 15.53217,-18.2924 h -10.66667 l -13.23977,15.76608 v -15.76608 h -8.79532 V 480 h 8.79532 V 463.62573 L 339.39728,480 Z"/>
		<path d="m 356.47258,460.67836 c 0,11.27486 8.04679,20.02339 19.46199,20.02339 11.08772,0 19.41521,-8.74853 19.41521,-20.02339 0,-11.27485 -8.70176,-19.97661 -19.41521,-19.97661 -10.61988,0 -19.46199,8.70176 -19.46199,19.97661 z m 9.49708,0 c 0,-5.75438 3.18129,-11.50877 9.96491,-11.50877 6.83041,0 9.91813,5.75439 9.91813,11.50877 0,5.75439 -2.90058,11.50877 -9.91813,11.50877 -7.20468,0 -9.96491,-5.75438 -9.96491,-11.50877 z"/>
		<path d="m 400.33589,449.12281 h 9.16959 V 480 h 8.79533 v -30.87719 h 9.16959 v -7.7193 h -27.13451 z"/>
		<path d="M 457.71967,441.40351 H 435.6378 V 480 h 22.08187 v -7.7193 h -13.28655 v -7.76608 h 12.72515 v -7.7193 h -12.72515 v -7.67251 h 13.28655 z"/>
		<path d="m 476.57127,441.40351 h -8.79532 V 480 h 22.08187 v -7.7193 h -13.28655 z"/>
		<path d="m 507.97844,441.40351 h -8.79532 V 480 h 8.79532 z"/>
		<path d="m 538.22259,441.40351 h -8.14035 L 514.50329,480 h 9.45029 l 2.8538,-7.7193 h 14.69006 l 2.8538,7.7193 h 9.4503 z m 0.2807,23.15789 h -8.70175 l 4.30409,-11.22807 h 0.0936 z"/>
		<path d="m 569.05665,456.04678 h 0.0936 L 584.49525,480 h 8.79532 v -38.59649 h -8.79532 v 23.95321 h -0.0936 l -15.34503,-23.95321 h -8.79532 V 480 h 8.79532 z"/>
		<path d="m 617.22113,440.70175 c -6.22222,0 -12.58479,4.5848 -12.58479,11.78948 0,4.02339 2.71345,7.62573 7.34503,9.91813 4.58479,2.29239 8.70175,3.55555 8.70175,6.36257 0,3.60234 -3.64912,3.78947 -5.56725,3.78947 -4.30409,0 -9.45029,-4.35087 -9.45029,-4.35087 l -4.39766,7.39181 c 0,0 5.47368,5.09941 14.50292,5.09941 7.53217,0 14.54971,-3.22807 14.54971,-12.44444 0,-5.05263 -4.72515,-8.70175 -9.02924,-10.52632 -4.39766,-1.87134 -8.04678,-3.4152 -8.04678,-5.56725 0,-2.10526 1.59064,-3.46199 4.58479,-3.46199 3.97661,0 7.81287,2.66667 7.81287,2.66667 l 3.55555,-7.01754 c 0,0 -4.95906,-3.64913 -11.97661,-3.64913 z"/>
		<path d="m 674.56615,480 -17.96491,-20.30409 15.53217,-18.2924 h -10.66667 l -13.23977,15.76608 v -15.76608 h -8.79532 V 480 h 8.79532 V 463.62573 L 662.4492,480 Z"/>
		<path d="m 672.84173,441.40351 14.22222,21.28655 V 480 h 8.79532 v -17.30994 l 14.22223,-21.28655 h -10.5731 l -8.04679,12.35088 -8.04678,-12.35088 z"/>
		<path d="m 718.36145,469.9883 c -2.94737,0 -5.33333,2.38597 -5.33333,5.38012 0,2.47953 1.73099,4.35088 4.02339,4.91228 -0.74854,3.88304 -3.55556,6.54971 -3.55556,6.54971 l 2.38597,1.96491 c 3.83626,-3.18128 7.85965,-7.76608 7.85965,-13.4269 0,-2.99415 -2.38597,-5.38012 -5.38012,-5.38012 z"/>
		<path d="M 752.17655,441.40351 V 480 h 11.18129 c 10.61988,0 19.46199,-8.04678 19.46199,-19.32164 0,-11.22807 -8.88889,-19.27485 -19.46199,-19.27485 z m 8.79533,30.73684 v -22.87719 h 1.35672 c 6.54971,0 10.99415,5.00585 10.99415,11.46199 -0.0468,6.45614 -4.49122,11.4152 -10.99415,11.4152 z"/>
		<path d="m 797.04932,469.9883 c -2.94737,0 -5.33334,2.38597 -5.33334,5.38012 0,2.94737 2.38597,5.33333 5.33334,5.33333 2.99415,0 5.38011,-2.38596 5.38011,-5.33333 0,-2.99415 -2.38596,-5.38012 -5.38011,-5.38012 z"/>
		<path d="m 839.65974,464.51462 h 12.44445 V 480 h 8.79532 v -38.59649 h -8.79532 v 15.39181 h -12.44445 v -15.39181 h -8.79532 V 480 h 8.79532 z"/>
		<path d="m 876.83368,469.9883 c -2.94737,0 -5.33333,2.38597 -5.33333,5.38012 0,2.94737 2.38596,5.33333 5.33333,5.33333 2.99415,0 5.38012,-2.38596 5.38012,-5.33333 0,-2.99415 -2.38597,-5.38012 -5.38012,-5.38012 z"/>
		<path d="m 919.44411,441.40351 h -8.79533 V 480 h 22.08188 v -7.7193 h -13.28655 z"/>
		<path d="m 962.38925,441.40351 h -8.14036 L 938.66995,480 h 9.45029 l 2.8538,-7.7193 H 965.6641 L 968.5179,480 h 9.45029 z m 0.2807,23.15789 h -8.70176 l 4.3041,-11.22807 h 0.0936 z"/>
		<path d="m 1010.0215,480 h 9.731 l 10.9942,-38.59649 h -9.731 l -6.5965,26.47953 h -0.2339 l -7.0176,-26.47953 h -6.6432 l -7.01757,26.47953 h -0.23392 l -6.59649,-26.47953 h -9.77778 L 987.89289,480 h 9.77778 l 6.17543,-21.66082 z"/>
		<path d="M 1037.8564,441.40351 V 480 h 8.7953 V 464.74854 L 1058.4412,480 h 11.1812 l -13.2865,-15.95322 c 4.7251,-1.49707 7.9064,-5.38011 7.9064,-11.18128 0,-7.57895 -5.4269,-11.46199 -12.5848,-11.46199 z m 8.7953,17.12281 v -10.10527 h 1.0292 c 3.3217,0 7.2983,0.23392 7.2983,5.05263 0,4.81872 -3.9766,5.05264 -7.2983,5.05264 z"/>
		<path d="m 1098.4726,441.40351 h -22.0819 V 480 h 22.0819 v -7.7193 h -13.2866 v -7.76608 h 12.7252 v -7.7193 h -12.7252 v -7.67251 h 13.2866 z"/>
		<path d="m 1117.3242,456.04678 h 0.094 L 1132.7628,480 h 8.7954 v -38.59649 h -8.7954 v 23.95321 h -0.093 l -15.3451,-23.95321 h -8.7953 V 480 h 8.7953 z"/>
		<path d="m 1171.2562,472.04678 c -8.8421,0 -12.7252,-6.17544 -12.7252,-11.36842 0,-5.1462 3.8831,-11.32164 12.7252,-11.32164 4.4912,0 7.5789,2.38597 7.5789,2.38597 l 3.7427,-7.48538 c 0,0 -4.3041,-3.55556 -12.6783,-3.55556 -10.9474,0 -20.9123,8.98246 -20.9123,20.07018 0,11.04094 10.0117,19.92982 20.9123,19.92982 8.3742,0 12.6783,-3.55555 12.6783,-3.55555 l -3.7427,-7.48538 c 0,0 -3.0877,2.38596 -7.5789,2.38596 z"/>
		<path d="m 1213.0705,441.40351 h -22.0819 V 480 h 22.0819 v -7.7193 h -13.2866 v -7.76608 h 12.7252 v -7.7193 h -12.7252 v -7.67251 h 13.2866 z"/>
		<path d="m 1228.4601,469.9883 c -2.9473,0 -5.3333,2.38597 -5.3333,5.38012 0,2.47953 1.731,4.35088 4.0234,4.91228 -0.7485,3.88304 -3.5556,6.54971 -3.5556,6.54971 l 2.386,1.96491 c 3.8363,-3.18128 7.8597,-7.76608 7.8597,-13.4269 0,-2.99415 -2.386,-5.38012 -5.3802,-5.38012 z"/>
	</g>
	<g aria-label="LEONARD WOOLF,">
		<path d="M 455.78362,501.40351 H 446.9883 V 540 h 22.08187 v -7.7193 h -13.28655 z"/>
		<path d="M 500.47734,501.40351 H 478.39546 V 540 h 22.08188 v -7.7193 h -13.28655 v -7.76608 h 12.72514 v -7.7193 h -12.72514 v -7.67251 h 13.28655 z"/>
		<path d="m 508.80263,520.67836 c 0,11.27486 8.04678,20.02339 19.46199,20.02339 11.08772,0 19.4152,-8.74853 19.4152,-20.02339 0,-11.27485 -8.70175,-19.97661 -19.4152,-19.97661 -10.61989,0 -19.46199,8.70176 -19.46199,19.97661 z m 9.49707,0 c 0,-5.75438 3.18129,-11.50877 9.96492,-11.50877 6.83041,0 9.91813,5.75439 9.91813,11.50877 0,5.75439 -2.90059,11.50877 -9.91813,11.50877 -7.20468,0 -9.96492,-5.75438 -9.96492,-11.50877 z"/>
		<path d="m 565.35599,516.04678 h 0.0936 L 580.79459,540 h 8.79532 v -38.59649 h -8.79532 v 23.95321 h -0.0936 l -15.34503,-23.95321 h -8.79532 V 540 h 8.79532 z"/>
		<path d="m 619.81433,501.40351 h -8.14035 L 596.09503,540 h 9.4503 l 2.8538,-7.7193 h 14.69006 l 2.8538,7.7193 h 9.45029 z m 0.28071,23.15789 h -8.70176 l 4.30409,-11.22807 h 0.0936 z"/>
		<path d="M 641.85308,501.40351 V 540 h 8.79532 V 524.74854 L 662.43787,540 h 11.18129 l -13.28655,-15.95322 c 4.72515,-1.49707 7.90643,-5.38011 7.90643,-11.18128 0,-7.57895 -5.4269,-11.46199 -12.58479,-11.46199 z m 8.79532,17.12281 v -10.10527 h 1.02924 c 3.32164,0 7.29824,0.23392 7.29824,5.05263 0,4.81872 -3.9766,5.05264 -7.29824,5.05264 z"/>
		<path d="M 680.38742,501.40351 V 540 h 11.18129 c 10.61988,0 19.46199,-8.04678 19.46199,-19.32164 0,-11.22807 -8.88889,-19.27485 -19.46199,-19.27485 z m 8.79533,30.73684 v -22.87719 h 1.35672 c 6.54971,0 10.99415,5.00585 10.99415,11.46199 -0.0468,6.45614 -4.49122,11.4152 -10.99415,11.4152 z"/>
		<path d="m 763.31288,540 h 9.73099 l 10.99415,-38.59649 h -9.73099 l -6.59649,26.47953 h -0.23392 l -7.01754,-26.47953 h -6.64328 l -7.01754,26.47953 h -0.23392 l -6.59649,-26.47953 h -9.77778 L 741.18422,540 h 9.77778 l 6.17544,-21.66082 z"/>
		<path d="m 787.95469,520.67836 c 0,11.27486 8.04679,20.02339 19.46199,20.02339 11.08772,0 19.41521,-8.74853 19.41521,-20.02339 0,-11.27485 -8.70176,-19.97661 -19.41521,-19.97661 -10.61988,0 -19.46199,8.70176 -19.46199,19.97661 z m 9.49708,0 c 0,-5.75438 3.18129,-11.50877 9.96491,-11.50877 6.83041,0 9.91813,5.75439 9.91813,11.50877 0,5.75439 -2.90058,11.50877 -9.91813,11.50877 -7.20468,0 -9.96491,-5.75438 -9.96491,-11.50877 z"/>
		<path d="m 833.98173,520.67836 c 0,11.27486 8.04679,20.02339 19.46199,20.02339 11.08772,0 19.41521,-8.74853 19.41521,-20.02339 0,-11.27485 -8.70176,-19.97661 -19.41521,-19.97661 -10.61988,0 -19.46199,8.70176 -19.46199,19.97661 z m 9.49708,0 c 0,-5.75438 3.18129,-11.50877 9.96491,-11.50877 6.83041,0 9.91813,5.75439 9.91813,11.50877 0,5.75439 -2.90059,11.50877 -9.91813,11.50877 -7.20468,0 -9.96491,-5.75438 -9.96491,-11.50877 z"/>
		<path d="m 890.53509,501.40351 h -8.79532 V 540 h 22.08187 v -7.7193 h -13.28655 z"/>
		<path d="M 935.46272,501.40351 H 913.14693 V 540 h 8.79532 v -15.48538 h 12.49123 v -7.7193 h -12.49123 v -7.67251 h 13.52047 z"/>
		<path d="m 947.60307,529.9883 c -2.94737,0 -5.33334,2.38597 -5.33334,5.38012 0,2.47953 1.731,4.35088 4.0234,4.91228 -0.74854,3.88304 -3.55556,6.54971 -3.55556,6.54971 l 2.38596,1.96491 c 3.83626,-3.18128 7.85965,-7.76608 7.85965,-13.4269 0,-2.99415 -2.38596,-5.38012 -5.38011,-5.38012 z"/>
	</g>
	<g aria-label="BERNARD GUILBERT GUERNEY">
		<path d="M 281.54605,561.40351 V 600 h 14.64327 c 8,0 12.63158,-4.39766 12.63158,-10.76023 0,-6.22223 -3.4152,-8.88889 -8.23392,-9.731 3.27486,-1.68421 4.81872,-4.72514 4.81872,-8.2807 0,-7.34503 -5.23977,-9.82456 -11.88305,-9.82456 z m 8.79532,15.11111 v -8.32749 h 0.70175 c 3.83626,0 5.84796,1.16959 5.84796,3.92983 0,3.22807 -2.05848,4.39766 -5.84796,4.39766 z m 0,16.70175 v -9.1228 h 2.76023 c 4.16374,0 6.45614,1.26315 6.45614,4.81871 0,3.04094 -2.2924,4.30409 -6.45614,4.30409 z"/>
		<path d="M 339.78654,561.40351 H 317.70467 V 600 h 22.08187 v -7.7193 h -13.28655 v -7.76608 h 12.72515 v -7.7193 h -12.72515 v -7.67251 h 13.28655 z"/>
		<path d="M 349.84283,561.40351 V 600 h 8.79532 V 584.74854 L 370.42763,600 h 11.18128 l -13.28655,-15.95322 c 4.72515,-1.49707 7.90644,-5.38011 7.90644,-11.18128 0,-7.57895 -5.42691,-11.46199 -12.5848,-11.46199 z m 8.79532,17.12281 v -10.10527 h 1.02924 c 3.32164,0 7.29825,0.23392 7.29825,5.05263 0,4.81872 -3.97661,5.05264 -7.29825,5.05264 z"/>
		<path d="m 397.17251,576.04678 h 0.0936 L 412.61111,600 h 8.79532 v -38.59649 h -8.79532 v 23.95321 h -0.0936 l -15.34503,-23.95321 h -8.79532 V 600 h 8.79532 z"/>
		<path d="M 451.63085,561.40351 H 443.4905 L 427.91155,600 h 9.4503 l 2.8538,-7.7193 h 14.69006 l 2.8538,7.7193 h 9.45029 z m 0.28071,23.15789 h -8.70176 l 4.30409,-11.22807 h 0.0936 z"/>
		<path d="M 473.6696,561.40351 V 600 h 8.79532 V 584.74854 L 494.25439,600 h 11.18129 l -13.28655,-15.95322 c 4.72515,-1.49707 7.90643,-5.38011 7.90643,-11.18128 0,-7.57895 -5.4269,-11.46199 -12.58479,-11.46199 z m 8.79532,17.12281 v -10.10527 h 1.02924 c 3.32164,0 7.29824,0.23392 7.29824,5.05263 0,4.81872 -3.9766,5.05264 -7.29824,5.05264 z"/>
		<path d="M 512.20394,561.40351 V 600 h 11.18129 c 10.61988,0 19.46199,-8.04678 19.46199,-19.32164 0,-11.22807 -8.88889,-19.27485 -19.46199,-19.27485 z m 8.79533,30.73684 v -22.87719 h 1.35672 c 6.54971,0 10.99415,5.00585 10.99415,11.46199 -0.0468,6.45614 -4.49122,11.4152 -10.99415,11.4152 z"/>
		<path d="m 604.43641,578.38596 h -17.82456 v 6.78363 h 8.88889 c 0,4.72515 -4.16375,7.4386 -8.37427,7.4386 -5.4269,0 -9.82457,-5.33334 -9.82457,-11.88304 0,-6.69006 4.39767,-12.07018 9.82457,-12.07018 3.4152,0 6.36257,1.35673 8.60818,4.95906 l 5.75439,-6.31578 c -3.36842,-4.07018 -8.09357,-6.5965 -14.87719,-6.5965 -10.8538,0 -18.80702,8.93568 -18.80702,20.0234 0,11.04093 8.42105,19.9766 18.80702,19.9766 7.57894,0 15.7193,-4.16374 17.82456,-13.94152 z"/>
		<path d="M 642.93932,561.40351 H 634.144 v 22.31579 c 0,6.45614 -1.96492,8.32748 -6.26901,8.32748 -4.30409,0 -6.26901,-1.87134 -6.26901,-8.32748 v -22.31579 h -8.79532 v 24.88889 c 0,9.54386 5.23977,14.40935 15.06433,14.40935 9.82456,0 15.06433,-4.86549 15.06433,-14.40935 z"/>
		<path d="M 661.88742,561.40351 H 653.0921 V 600 h 8.79532 z"/>
		<path d="m 681.32458,561.40351 h -8.79532 V 600 h 22.08187 v -7.7193 h -13.28655 z"/>
		<path d="M 703.9364,561.40351 V 600 h 14.64327 c 8,0 12.63158,-4.39766 12.63158,-10.76023 0,-6.22223 -3.4152,-8.88889 -8.23392,-9.731 3.27486,-1.68421 4.81872,-4.72514 4.81872,-8.2807 0,-7.34503 -5.23977,-9.82456 -11.88304,-9.82456 z m 8.79532,15.11111 v -8.32749 h 0.70175 c 3.83626,0 5.84796,1.16959 5.84796,3.92983 0,3.22807 -2.05848,4.39766 -5.84796,4.39766 z m 0,16.70175 v -9.1228 h 2.76023 c 4.16375,0 6.45614,1.26315 6.45614,4.81871 0,3.04094 -2.29239,4.30409 -6.45614,4.30409 z"/>
		<path d="M 762.1769,561.40351 H 740.09503 V 600 h 22.08187 v -7.7193 h -13.28655 v -7.76608 h 12.72515 v -7.7193 h -12.72515 v -7.67251 h 13.28655 z"/>
		<path d="M 772.23318,561.40351 V 600 h 8.79532 V 584.74854 L 792.81798,600 h 11.18128 l -13.28655,-15.95322 c 4.72515,-1.49707 7.90644,-5.38011 7.90644,-11.18128 0,-7.57895 -5.42691,-11.46199 -12.5848,-11.46199 z m 8.79532,17.12281 v -10.10527 h 1.02924 c 3.32164,0 7.29825,0.23392 7.29825,5.05263 0,4.81872 -3.97661,5.05264 -7.29825,5.05264 z"/>
		<path d="m 806.50734,569.12281 h 9.16959 V 600 h 8.79532 v -30.87719 h 9.16959 v -7.7193 h -27.1345 z"/>
		<path d="m 894.50217,578.38596 h -17.82456 v 6.78363 h 8.88889 c 0,4.72515 -4.16374,7.4386 -8.37427,7.4386 -5.4269,0 -9.82456,-5.33334 -9.82456,-11.88304 0,-6.69006 4.39766,-12.07018 9.82456,-12.07018 3.41521,0 6.36258,1.35673 8.60819,4.95906 l 5.75439,-6.31578 c -3.36843,-4.07018 -8.09357,-6.5965 -14.8772,-6.5965 -10.8538,0 -18.80702,8.93568 -18.80702,20.0234 0,11.04093 8.42106,19.9766 18.80702,19.9766 7.57895,0 15.7193,-4.16374 17.82456,-13.94152 z"/>
		<path d="m 933.00514,561.40351 h -8.79532 v 22.31579 c 0,6.45614 -1.96491,8.32748 -6.269,8.32748 -4.3041,0 -6.26901,-1.87134 -6.26901,-8.32748 v -22.31579 h -8.79532 v 24.88889 c 0,9.54386 5.23976,14.40935 15.06433,14.40935 9.82456,0 15.06432,-4.86549 15.06432,-14.40935 z"/>
		<path d="M 965.2398,561.40351 H 943.15792 V 600 h 22.08188 v -7.7193 h -13.28655 v -7.76608 h 12.72514 v -7.7193 h -12.72514 v -7.67251 h 13.28655 z"/>
		<path d="M 975.29605,561.40351 V 600 h 8.79532 V 584.74854 L 995.88084,600 h 11.18126 l -13.28652,-15.95322 c 4.72515,-1.49707 7.90642,-5.38011 7.90642,-11.18128 0,-7.57895 -5.42689,-11.46199 -12.58478,-11.46199 z m 8.79532,17.12281 v -10.10527 h 1.02924 c 3.32164,0 7.29824,0.23392 7.29824,5.05263 0,4.81872 -3.9766,5.05264 -7.29824,5.05264 z"/>
		<path d="m 1022.6257,576.04678 h 0.094 L 1038.0643,600 h 8.7953 v -38.59649 h -8.7953 v 23.95321 h -0.093 l -15.3451,-23.95321 h -8.7953 V 600 h 8.7953 z"/>
		<path d="m 1079.5636,561.40351 h -22.0819 V 600 h 22.0819 v -7.7193 h -13.2866 v -7.76608 h 12.7252 v -7.7193 h -12.7252 v -7.67251 h 13.2866 z"/>
		<path d="m 1085.4094,561.40351 14.2222,21.28655 V 600 h 8.7953 v -17.30994 l 14.2222,-21.28655 h -10.5731 l -8.0467,12.35088 -8.0468,-12.35088 z"/>
	</g>
	<g aria-label="AND THE RUSSIAN REVIEW">
		<path d="M 346.39875,621.40351 H 338.2584 L 322.67945,660 h 9.4503 l 2.8538,-7.7193 h 14.69006 l 2.8538,7.7193 h 9.45029 z m 0.2807,23.15789 h -8.70175 l 4.30409,-11.22807 h 0.0936 z"/>
		<path d="m 377.23282,636.04678 h 0.0936 L 392.67141,660 h 8.79533 v -38.59649 h -8.79533 v 23.95321 h -0.0936 L 377.23282,621.40351 H 368.4375 V 660 h 8.79532 z"/>
		<path d="M 412.08882,621.40351 V 660 h 11.18128 c 10.61989,0 19.46199,-8.04678 19.46199,-19.32164 0,-11.22807 -8.88889,-19.27485 -19.46199,-19.27485 z m 8.79532,30.73684 v -22.87719 h 1.35672 c 6.54971,0 10.99416,5.00585 10.99416,11.46199 -0.0468,6.45614 -4.49123,11.4152 -10.99416,11.4152 z"/>
		<path d="m 464.70358,629.12281 h 9.16959 V 660 h 8.79533 v -30.87719 h 9.16959 v -7.7193 h -27.13451 z"/>
		<path d="m 508.80081,644.51462 h 12.44444 V 660 h 8.79533 v -38.59649 h -8.79533 v 15.39181 h -12.44444 v -15.39181 h -8.79532 V 660 h 8.79532 z"/>
		<path d="M 562.72332,621.40351 H 540.64144 V 660 h 22.08188 v -7.7193 h -13.28655 v -7.76608 h 12.72514 v -7.7193 h -12.72514 v -7.67251 h 13.28655 z"/>
		<path d="M 590.57202,621.40351 V 660 h 8.79532 V 644.74854 L 611.15681,660 h 11.18129 l -13.28655,-15.95322 c 4.72515,-1.49707 7.90643,-5.38011 7.90643,-11.18128 0,-7.57895 -5.4269,-11.46199 -12.58479,-11.46199 z m 8.79532,17.12281 v -10.10527 h 1.02924 c 3.32164,0 7.29824,0.23392 7.29824,5.05263 0,4.81872 -3.9766,5.05264 -7.29824,5.05264 z"/>
		<path d="m 658.76717,621.40351 h -8.79532 v 22.31579 c 0,6.45614 -1.96492,8.32748 -6.26901,8.32748 -4.30409,0 -6.26901,-1.87134 -6.26901,-8.32748 v -22.31579 h -8.79532 v 24.88889 c 0,9.54386 5.23977,14.40935 15.06433,14.40935 9.82456,0 15.06433,-4.86549 15.06433,-14.40935 z"/>
		<path d="m 682.22844,620.70175 c -6.22222,0 -12.58479,4.5848 -12.58479,11.78948 0,4.02339 2.71345,7.62573 7.34503,9.91813 4.58479,2.29239 8.70175,3.55555 8.70175,6.36257 0,3.60234 -3.64912,3.78947 -5.56725,3.78947 -4.30409,0 -9.45029,-4.35087 -9.45029,-4.35087 l -4.39766,7.39181 c 0,0 5.47368,5.09941 14.50292,5.09941 7.53216,0 14.54971,-3.22807 14.54971,-12.44444 0,-5.05263 -4.72515,-8.70175 -9.02924,-10.52632 -4.39766,-1.87134 -8.04678,-3.4152 -8.04678,-5.56725 0,-2.10526 1.59064,-3.46199 4.58479,-3.46199 3.97661,0 7.81287,2.66667 7.81287,2.66667 l 3.55555,-7.01754 c 0,0 -4.95906,-3.64913 -11.97661,-3.64913 z"/>
		<path d="m 717.74746,620.70175 c -6.22223,0 -12.5848,4.5848 -12.5848,11.78948 0,4.02339 2.71345,7.62573 7.34503,9.91813 4.58479,2.29239 8.70175,3.55555 8.70175,6.36257 0,3.60234 -3.64912,3.78947 -5.56725,3.78947 -4.30409,0 -9.45029,-4.35087 -9.45029,-4.35087 l -4.39766,7.39181 c 0,0 5.47368,5.09941 14.50292,5.09941 7.53217,0 14.54971,-3.22807 14.54971,-12.44444 0,-5.05263 -4.72515,-8.70175 -9.02924,-10.52632 -4.39766,-1.87134 -8.04678,-3.4152 -8.04678,-5.56725 0,-2.10526 1.59064,-3.46199 4.58479,-3.46199 3.97661,0 7.81287,2.66667 7.81287,2.66667 l 3.55555,-7.01754 c 0,0 -4.95906,-3.64913 -11.9766,-3.64913 z"/>
		<path d="m 748.75329,621.40351 h -8.79532 V 660 h 8.79532 z"/>
		<path d="m 778.99745,621.40351 h -8.14036 L 755.27815,660 h 9.45029 l 2.8538,-7.7193 H 782.2723 L 785.1261,660 h 9.45029 z m 0.2807,23.15789 h -8.70176 l 4.3041,-11.22807 h 0.0936 z"/>
		<path d="m 809.83151,636.04678 h 0.0936 L 825.27011,660 h 8.79532 v -38.59649 h -8.79532 v 23.95321 h -0.0936 l -15.34503,-23.95321 h -8.79532 V 660 h 8.79532 z"/>
		<path d="M 862.47988,621.40351 V 660 h 8.79533 V 644.74854 L 883.06468,660 h 11.18129 l -13.28655,-15.95322 c 4.72514,-1.49707 7.90643,-5.38011 7.90643,-11.18128 0,-7.57895 -5.4269,-11.46199 -12.5848,-11.46199 z m 8.79533,17.12281 v -10.10527 h 1.02924 c 3.32163,0 7.29824,0.23392 7.29824,5.05263 0,4.81872 -3.97661,5.05264 -7.29824,5.05264 z"/>
		<path d="M 923.09612,621.40351 H 901.01425 V 660 h 22.08187 v -7.7193 h -13.28655 v -7.76608 h 12.72515 v -7.7193 h -12.72515 v -7.67251 h 13.28655 z"/>
		<path d="m 945.22261,660 h 6.92397 l 16.18714,-38.59649 h -9.91813 l -9.731,25.35672 -9.73099,-25.35672 h -9.91813 z"/>
		<path d="m 983.5888,621.40351 h -8.79532 V 660 h 8.79532 z"/>
		<path d="M 1016.3125,621.40351 H 994.23062 V 660 h 22.08188 v -7.7193 h -13.2866 v -7.76608 h 12.7252 v -7.7193 h -12.7252 v -7.67251 h 13.2866 z"/>
		<path d="m 1055.9828,660 h 9.731 l 10.9942,-38.59649 h -9.731 l -6.5965,26.47953 h -0.2339 l -7.0176,-26.47953 h -6.6432 l -7.0176,26.47953 h -0.2339 l -6.5965,-26.47953 H 1022.86 L 1033.8542,660 h 9.7778 l 6.1754,-21.66082 z"/>
	</g>
</svg>
